<svg xmlns="http://www.w3.org/2000/svg" viewBox="0 0 1280 720" role="img" aria-labelledby="title desc">
  <title id="title">Hawkeye project preview</title>
  <desc id="desc">AI drone detection panel preview for Hawkeye.</desc>
  <defs>
    <linearGradient id="bg" x1="0" y1="0" x2="1" y2="1">
      <stop offset="0%" stop-color="#081423"/>
      <stop offset="100%" stop-color="#211138"/>
    </linearGradient>
  </defs>
  <rect width="1280" height="720" fill="url(#bg)"/>
  <circle cx="220" cy="120" r="190" fill="#22d3ee" fill-opacity="0.16"/>
  <circle cx="1060" cy="590" r="220" fill="#a855f7" fill-opacity="0.14"/>
  <rect x="76" y="52" width="1128" height="616" rx="34" fill="#0a1020" fill-opacity="0.9" stroke="#ffffff" stroke-opacity="0.14"/>
  <text x="122" y="116" fill="#e2e8f0" font-family="Space Grotesk, Arial, sans-serif" font-size="31" font-weight="700">Hawkeye Drone Detection</text>
  <text x="122" y="148" fill="#93c5fd" font-family="Inter, Arial, sans-serif" font-size="18">YOLOv7 detection across webcam, image, and video streams</text>
  <rect x="122" y="190" width="716" height="430" rx="22" fill="#0f172a" stroke="#22d3ee" stroke-opacity="0.32"/>
  <rect x="868" y="190" width="298" height="430" rx="22" fill="#101a31" stroke="#ffffff" stroke-opacity="0.1"/>
  <rect x="160" y="230" width="640" height="350" rx="18" fill="#111827"/>
  <rect x="274" y="318" width="220" height="130" rx="14" fill="none" stroke="#22d3ee" stroke-width="4"/>
  <text x="284" y="346" fill="#22d3ee" font-family="Inter, Arial, sans-serif" font-size="16">Drone 97%</text>
  <rect x="538" y="366" width="170" height="110" rx="14" fill="none" stroke="#a78bfa" stroke-width="4"/>
  <text x="548" y="394" fill="#c4b5fd" font-family="Inter, Arial, sans-serif" font-size="16">Object 84%</text>
  <text x="902" y="246" fill="#e2e8f0" font-family="Space Grotesk, Arial, sans-serif" font-size="24" font-weight="700">Detection Modes</text>
  <rect x="902" y="276" width="230" height="52" rx="12" fill="#22d3ee" fill-opacity="0.18"/>
  <rect x="902" y="338" width="230" height="52" rx="12" fill="#ffffff" fill-opacity="0.06"/>
  <rect x="902" y="400" width="230" height="52" rx="12" fill="#ffffff" fill-opacity="0.06"/>
  <text x="922" y="308" fill="#67e8f9" font-family="Inter, Arial, sans-serif" font-size="17">Webcam Detection</text>
  <text x="922" y="370" fill="#cbd5e1" font-family="Inter, Arial, sans-serif" font-size="17">Image Detection</text>
  <text x="922" y="432" fill="#cbd5e1" font-family="Inter, Arial, sans-serif" font-size="17">Video Detection</text>
  <text x="902" y="506" fill="#e2e8f0" font-family="Space Grotesk, Arial, sans-serif" font-size="23" font-weight="700">Model Insights</text>
  <text x="902" y="540" fill="#cbd5e1" font-family="Inter, Arial, sans-serif" font-size="15">Precision and confidence scores updated in real-time.</text>
</svg>
